<svg width="2489" height="512" viewBox="0 0 2489 512" fill="none" xmlns="http://www.w3.org/2000/svg">
    <rect width="512" height="512" rx="80" fill="#F0F0F0"/>
    <circle cx="301" cy="301" r="120" fill="#B4B4B4"/>
    <circle cx="211" cy="211" r="120" fill="#3C3C3C"/>
    <path d="M744.222 376.08C720.422 376.08 699.795 370.98 682.342 360.78C665.115 350.353 651.855 335.96 642.562 317.6C633.268 299.013 628.622 277.593 628.622 253.34C628.622 229.087 633.268 207.667 642.562 189.08C652.082 170.493 665.455 155.987 682.682 145.56C699.908 135.133 720.422 129.92 744.222 129.92C773.008 129.92 796.582 137.06 814.942 151.34C833.302 165.393 844.748 185.453 849.282 211.52H800.322C797.375 198.6 791.142 188.513 781.622 181.26C772.328 174.007 759.748 170.38 743.882 170.38C729.375 170.38 716.908 173.78 706.482 180.58C696.055 187.153 688.008 196.673 682.342 209.14C676.902 221.38 674.182 236.113 674.182 253.34C674.182 270.34 676.902 285.073 682.342 297.54C688.008 309.78 696.055 319.3 706.482 326.1C716.908 332.673 729.375 335.96 743.882 335.96C759.748 335.96 772.328 332.56 781.622 325.76C791.142 318.96 797.375 309.553 800.322 297.54H849.282C844.748 322.02 833.302 341.287 814.942 355.34C796.582 369.167 773.008 376.08 744.222 376.08ZM884.089 372V203.36H923.189L927.609 236.34H927.949C932.256 227.953 937.356 221.04 943.249 215.6C949.143 210.16 955.943 206.08 963.649 203.36C971.583 200.64 980.309 199.28 989.829 199.28V246.54H977.589C970.336 246.54 963.649 247.333 957.529 248.92C951.409 250.507 946.196 253.227 941.889 257.08C937.583 260.707 934.296 265.693 932.029 272.04C929.763 278.387 928.629 286.207 928.629 295.5V372H884.089ZM1095.53 376.08C1078.3 376.08 1063.12 372.453 1049.97 365.2C1036.82 357.947 1026.51 347.747 1019.03 334.6C1011.55 321.453 1007.81 306.267 1007.81 289.04C1007.81 271.36 1011.44 255.833 1018.69 242.46C1026.17 229.087 1036.48 218.547 1049.63 210.84C1062.78 203.133 1078.19 199.28 1095.87 199.28C1112.64 199.28 1127.38 202.907 1140.07 210.16C1152.76 217.413 1162.62 227.273 1169.65 239.74C1176.9 252.207 1180.53 266.373 1180.53 282.24C1180.53 284.507 1180.42 287.113 1180.19 290.06C1180.19 292.78 1180.08 295.613 1179.85 298.56H1039.77V271.02H1135.31C1134.63 260.14 1130.55 251.527 1123.07 245.18C1115.82 238.607 1106.75 235.32 1095.87 235.32C1087.71 235.32 1080.23 237.133 1073.43 240.76C1066.86 244.16 1061.53 249.487 1057.45 256.74C1053.6 263.767 1051.67 272.72 1051.67 283.6V293.46C1051.67 302.98 1053.48 311.253 1057.11 318.28C1060.96 325.08 1066.18 330.407 1072.75 334.26C1079.55 337.887 1087.03 339.7 1095.19 339.7C1103.8 339.7 1111.06 337.773 1116.95 333.92C1122.84 330.067 1127.26 324.967 1130.21 318.62H1175.43C1172.26 329.5 1166.93 339.247 1159.45 347.86C1151.97 356.473 1142.79 363.387 1131.91 368.6C1121.26 373.587 1109.13 376.08 1095.53 376.08ZM1295.41 376.08C1278.19 376.08 1263 372.453 1249.85 365.2C1236.71 357.947 1226.39 347.747 1218.91 334.6C1211.43 321.453 1207.69 306.267 1207.69 289.04C1207.69 271.36 1211.32 255.833 1218.57 242.46C1226.05 229.087 1236.37 218.547 1249.51 210.84C1262.66 203.133 1278.07 199.28 1295.75 199.28C1312.53 199.28 1327.26 202.907 1339.95 210.16C1352.65 217.413 1362.51 227.273 1369.53 239.74C1376.79 252.207 1380.41 266.373 1380.41 282.24C1380.41 284.507 1380.3 287.113 1380.07 290.06C1380.07 292.78 1379.96 295.613 1379.73 298.56H1239.65V271.02H1335.19C1334.51 260.14 1330.43 251.527 1322.95 245.18C1315.7 238.607 1306.63 235.32 1295.75 235.32C1287.59 235.32 1280.11 237.133 1273.31 240.76C1266.74 244.16 1261.41 249.487 1257.33 256.74C1253.48 263.767 1251.55 272.72 1251.55 283.6V293.46C1251.55 302.98 1253.37 311.253 1256.99 318.28C1260.85 325.08 1266.06 330.407 1272.63 334.26C1279.43 337.887 1286.91 339.7 1295.07 339.7C1303.69 339.7 1310.94 337.773 1316.83 333.92C1322.73 330.067 1327.15 324.967 1330.09 318.62H1375.31C1372.14 329.5 1366.81 339.247 1359.33 347.86C1351.85 356.473 1342.67 363.387 1331.79 368.6C1321.14 373.587 1309.01 376.08 1295.41 376.08ZM1413.02 372V203.36H1452.12L1455.86 227.5H1456.2C1461.64 218.66 1468.89 211.747 1477.96 206.76C1487.02 201.773 1497.45 199.28 1509.24 199.28C1517.85 199.28 1525.67 200.413 1532.7 202.68C1539.72 204.947 1545.84 208.347 1551.06 212.88C1556.5 217.413 1561.03 223.08 1564.66 229.88H1565C1571.34 220.36 1579.5 212.88 1589.48 207.44C1599.68 202 1611.12 199.28 1623.82 199.28C1638.1 199.28 1650.22 202.227 1660.2 208.12C1670.17 214.013 1677.76 222.74 1682.98 234.3C1688.19 245.86 1690.8 260.14 1690.8 277.14V372H1646.6V281.22C1646.6 266.94 1643.76 256.06 1638.1 248.58C1632.66 240.873 1624.16 237.02 1612.6 237.02C1604.89 237.02 1598.09 238.833 1592.2 242.46C1586.53 246.087 1582.11 251.413 1578.94 258.44C1575.76 265.467 1574.18 273.967 1574.18 283.94V372H1529.98V281.22C1529.98 266.94 1527.14 256.06 1521.48 248.58C1516.04 240.873 1507.31 237.02 1495.3 237.02C1488.27 237.02 1481.81 238.947 1475.92 242.8C1470.25 246.427 1465.72 251.867 1462.32 259.12C1459.14 266.147 1457.56 274.76 1457.56 284.96V372H1413.02ZM1729.46 372V134H1826.02C1842.57 134 1856.51 136.607 1867.84 141.82C1879.18 147.033 1887.68 154.287 1893.34 163.58C1899.24 172.647 1902.18 183.187 1902.18 195.2C1902.18 207.213 1899.58 217.3 1894.36 225.46C1889.15 233.62 1882.24 239.967 1873.62 244.5C1865.01 248.807 1855.72 251.3 1845.74 251.98L1851.18 248.24C1861.84 248.693 1871.36 251.64 1879.74 257.08C1888.36 262.293 1895.16 269.32 1900.14 278.16C1905.13 287 1907.62 296.633 1907.62 307.06C1907.62 319.753 1904.56 330.973 1898.44 340.72C1892.32 350.467 1883.48 358.173 1871.92 363.84C1860.36 369.28 1846.2 372 1829.42 372H1729.46ZM1774 335.62H1822.28C1834.98 335.62 1844.84 332.673 1851.86 326.78C1858.89 320.887 1862.4 312.613 1862.4 301.96C1862.4 291.08 1858.78 282.58 1851.52 276.46C1844.27 270.113 1834.3 266.94 1821.6 266.94H1774V335.62ZM1774 233.62H1818.88C1831.12 233.62 1840.42 230.9 1846.76 225.46C1853.34 219.793 1856.62 211.86 1856.62 201.66C1856.62 191.687 1853.34 183.867 1846.76 178.2C1840.42 172.533 1831.01 169.7 1818.54 169.7H1774V233.62ZM1997.73 376.08C1983.68 376.08 1972.01 373.813 1962.71 369.28C1953.65 364.747 1946.85 358.627 1942.31 350.92C1938.01 342.987 1935.85 334.373 1935.85 325.08C1935.85 314.653 1938.57 305.587 1944.01 297.88C1949.45 289.947 1957.61 283.827 1968.49 279.52C1979.37 274.987 1992.97 272.72 2009.29 272.72H2051.79C2051.79 264.107 2050.55 257.08 2048.05 251.64C2045.79 246.2 2042.16 242.12 2037.17 239.4C2032.19 236.68 2025.84 235.32 2018.13 235.32C2009.29 235.32 2001.59 237.36 1995.01 241.44C1988.67 245.52 1984.81 251.64 1983.45 259.8H1939.93C1941.29 247.333 1945.37 236.68 1952.17 227.84C1959.2 218.773 1968.49 211.747 1980.05 206.76C1991.61 201.773 2004.42 199.28 2018.47 199.28C2034.57 199.28 2048.39 202 2059.95 207.44C2071.74 212.88 2080.81 220.7 2087.15 230.9C2093.5 241.1 2096.67 253.567 2096.67 268.3V372H2058.93L2054.17 345.48H2053.83C2051.34 350.24 2048.17 354.547 2044.31 358.4C2040.69 362.027 2036.49 365.2 2031.73 367.92C2027.2 370.413 2022.1 372.34 2016.43 373.7C2010.77 375.287 2004.53 376.08 1997.73 376.08ZM2009.29 341.4C2015.64 341.4 2021.19 340.38 2025.95 338.34C2030.71 336.073 2034.79 333.013 2038.19 329.16C2041.59 325.307 2044.31 320.887 2046.35 315.9C2048.39 310.913 2049.64 305.7 2050.09 300.26H2014.39C2006.91 300.26 2000.79 301.167 1996.03 302.98C1991.5 304.793 1988.21 307.287 1986.17 310.46C1984.13 313.633 1983.11 317.26 1983.11 321.34C1983.11 325.647 1984.13 329.387 1986.17 332.56C1988.44 335.507 1991.5 337.773 1995.35 339.36C1999.43 340.72 2004.08 341.4 2009.29 341.4ZM2204.23 376.08C2189.27 376.08 2176.01 373.587 2164.45 368.6C2153.11 363.613 2144.05 356.813 2137.25 348.2C2130.45 339.587 2126.37 329.613 2125.01 318.28H2169.55C2170.68 322.587 2172.72 326.553 2175.67 330.18C2178.61 333.807 2182.35 336.753 2186.89 339.02C2191.65 341.06 2197.2 342.08 2203.55 342.08C2209.89 342.08 2214.99 341.173 2218.85 339.36C2222.93 337.547 2225.87 335.28 2227.69 332.56C2229.5 329.613 2230.41 326.553 2230.41 323.38C2230.41 318.847 2228.93 315.333 2225.99 312.84C2223.27 310.347 2219.19 308.307 2213.75 306.72C2208.53 304.907 2202.3 303.093 2195.05 301.28C2187.57 299.467 2179.97 297.427 2172.27 295.16C2164.79 292.893 2157.87 290.06 2151.53 286.66C2145.41 283.033 2140.42 278.5 2136.57 273.06C2132.71 267.393 2130.79 260.48 2130.79 252.32C2130.79 242.347 2133.51 233.393 2138.95 225.46C2144.39 217.3 2152.21 210.953 2162.41 206.42C2172.61 201.66 2184.96 199.28 2199.47 199.28C2219.41 199.28 2235.39 203.927 2247.41 213.22C2259.65 222.513 2266.79 235.32 2268.83 251.64H2226.67C2225.53 245.973 2222.59 241.553 2217.83 238.38C2213.07 235.207 2206.83 233.62 2199.13 233.62C2190.97 233.62 2184.73 235.207 2180.43 238.38C2176.35 241.327 2174.31 245.067 2174.31 249.6C2174.31 252.773 2175.78 255.607 2178.73 258.1C2181.67 260.367 2185.75 262.407 2190.97 264.22C2196.41 265.807 2202.64 267.507 2209.67 269.32C2221.91 272.267 2232.9 275.44 2242.65 278.84C2252.39 282.24 2260.21 287.113 2266.11 293.46C2272.23 299.58 2275.29 308.647 2275.29 320.66C2275.51 331.313 2272.68 340.833 2266.79 349.22C2260.89 357.607 2252.62 364.18 2241.97 368.94C2231.54 373.7 2218.96 376.08 2204.23 376.08ZM2391.12 376.08C2373.89 376.08 2358.7 372.453 2345.56 365.2C2332.41 357.947 2322.1 347.747 2314.62 334.6C2307.14 321.453 2303.4 306.267 2303.4 289.04C2303.4 271.36 2307.02 255.833 2314.28 242.46C2321.76 229.087 2332.07 218.547 2345.22 210.84C2358.36 203.133 2373.78 199.28 2391.46 199.28C2408.23 199.28 2422.96 202.907 2435.66 210.16C2448.35 217.413 2458.21 227.273 2465.24 239.74C2472.49 252.207 2476.12 266.373 2476.12 282.24C2476.12 284.507 2476 287.113 2475.78 290.06C2475.78 292.78 2475.66 295.613 2475.44 298.56H2335.36V271.02H2430.9C2430.22 260.14 2426.14 251.527 2418.66 245.18C2411.4 238.607 2402.34 235.32 2391.46 235.32C2383.3 235.32 2375.82 237.133 2369.02 240.76C2362.44 244.16 2357.12 249.487 2353.04 256.74C2349.18 263.767 2347.26 272.72 2347.26 283.6V293.46C2347.26 302.98 2349.07 311.253 2352.7 318.28C2356.55 325.08 2361.76 330.407 2368.34 334.26C2375.14 337.887 2382.62 339.7 2390.78 339.7C2399.39 339.7 2406.64 337.773 2412.54 333.92C2418.43 330.067 2422.85 324.967 2425.8 318.62H2471.02C2467.84 329.5 2462.52 339.247 2455.04 347.86C2447.56 356.473 2438.38 363.387 2427.5 368.6C2416.84 373.587 2404.72 376.08 2391.12 376.08Z" fill="#282828"/>
</svg>
